<svg xmlns="http://www.w3.org/2000/svg" fill="none" viewBox="0 0 24 24" id="Photo-Camera-Fill--Streamline-Sharp-Fill-Material" height="24" width="24"><desc>Photo Camera Fill Streamline Icon: https://streamlinehq.com</desc><path fill="#000000" d="M12 17.325c1.2 0 2.20835 -0.40835 3.025 -1.225 0.81665 -0.81665 1.225 -1.825 1.225 -3.025 0 -1.21665 -0.40835 -2.22915 -1.225 -3.0375 -0.81665 -0.80835 -1.825 -1.2125 -3.025 -1.2125 -1.21665 0 -2.22915 0.40415 -3.0375 1.2125 -0.80835 0.80835 -1.2125 1.82085 -1.2125 3.0375 0 1.2 0.40415 2.20835 1.2125 3.025 0.80835 0.81665 1.82085 1.225 3.0375 1.225Zm0 -1.5c-0.8 0 -1.45835 -0.2625 -1.975 -0.7875 -0.51665 -0.525 -0.775 -1.17915 -0.775 -1.9625 0 -0.8 0.25835 -1.45835 0.775 -1.975s1.175 -0.775 1.975 -0.775c0.78335 0 1.4375 0.25835 1.9625 0.775 0.525 0.51665 0.7875 1.175 0.7875 1.975 0 0.78335 -0.2625 1.4375 -0.7875 1.9625 -0.525 0.525 -1.17915 0.7875 -1.9625 0.7875ZM2 21V5.175h5.175L9 3h6l1.825 2.175H22V21H2Z" stroke-width="0.5"></path></svg>